<?xml version="1.0" encoding="UTF-8"?>
<svg xmlns="http://www.w3.org/2000/svg" viewBox="0 0 288 288">
  <rect width="288" height="288" fill="#FFD600" rx="48"/>
  <path fill="#1a0a2e" d="M162.67,131.14c2.81-.02,4.67-1.7,7.68-1.83,8.59-.39,18.83,4.1,19.8,13.44.6,5.81-4.67,28.63-6.98,34.48-2.01,5.1-13.28,1.79-13.85-.8.34-8.33,13.61-32.94.71-36.75-12.76-3.77-14.79,18.12-17.26,25.52-1.67,5-2.3,7.43-8.07,6.68-3.58-.46-9.38-1.1-8.89-5.54.8-7.37,4.33-14.77,6.19-21.81,2.58-9.79,5.6-29.59,10.63-37.34,3.71-5.71,14.52-5.55,15.62-.26,1.13,5.43-6.22,17.81-5.57,24.21Z"/>
  <path fill="#1a0a2e" d="M115.63,156.34c1.19-.99,2.78-1.81,4.32-2.61,1.41-.73,2.87-1.48,4.1-2.4,7.07-5.24,14.62-16.94,9.27-26.54-3.94-7.07-9.65-11.81-15.67-12.99-4.91-.96-9.9.44-14.44,4.06-1.77,1.42-3.25,3.19-4.68,4.9-1.57,1.88-3.07,3.68-4.88,4.97-1.68-1.45-3.63-2.08-5.61-1.77-2.77.43-5.23,2.62-6.58,5.87l-.4.95.6.84c3.29,4.62,6.54,9.29,9.79,13.96,6.59,9.47,13.4,19.27,20.53,28.56.6.78,1.26,1.4,1.84,1.95.48.45.93.87,1.29,1.33.42.53,1.02,1.44,1.66,2.4,2.95,4.45,5.24,7.61,7.83,7.8.08,0,.16,0,.23,0,2.22,0,5.51-2.11,6.95-4.03,1.19-1.58,1.1-2.86.81-3.65l-16.96-23.62ZM108.92,147.06c-.54-.72-1.21-1.58-1.94-2.5-1.84-2.34-4.13-5.25-4.79-6.75-.81-1.85,3.36-7.16,6.11-8.4,2.7-1.22,5.98.48,7.87,2.57,1.69,1.87,2.96,4.8,1.47,7.41-1.03,1.8-6.65,7-8.72,7.68Z"/>
  <path fill="#1a0a2e" d="M63.65,170.81c-12.99-20.42-20.54-59.54,2.7-75.58,24.82-17.12,63.31-23.63,92.8-18.75,31.92,5.29,54.96,16.12,64.16,48.76,10.73,38.07-1.8,80.67-42.86,92.05-31.21,8.65-54.03-.64-80.37-16.82-12.98-7.97-28.17-16.68-36.43-29.67ZM212.21,122.07c-6.46-16.78-14.49-24.26-31.53-30.29-35.05-12.4-73.94-9.59-105.93,9.37-15.42,9.14-15.86,25.66-12.44,41.65,6.11,28.6,21.9,37.22,45.31,51.34,24.47,14.76,47.1,22.71,75.3,12.52,34.1-12.32,41.05-54.04,29.28-84.6Z"/>
</svg>
