<?xml version="1.0" encoding="UTF-8"?><svg id="Layer_1" xmlns="http://www.w3.org/2000/svg" viewBox="26 78 238 142"><path fill="#fff" d="M95.06,168c7.58-4.61,15.78-7.71,22.39.35,17.08-9.24,23.29-3.56,24.64,14.24.32,4.21.85,15.31-1.2,18.54s-9.61,4.02-10.78,1.3c-1-2.33.78-15.46.69-19.31-.05-2.14-.57-7.52-2.4-8.74-2.94-1.98-7.38.46-7.88,3.77-.47,5.52.83,17.94-1.71,22.5-1.66,2.98-10.66,4.62-11.05-.2-.54-6.59,2.46-17.37,1-22.99-.75-2.87-1.99-5.02-5.26-4.93-9.83.27-8.31,19.72-9.36,26.03-1,5.96-5.54,6.64-7.83-.14-1.89-5.61-1.85-23.33-1.54-29.82.22-4.56,9.74-9.5,10.28-.62Z"/><path fill="#fff" d="M64.61,204.12c-5.26.82-14.36-4.19-15.32-9.68-.76-4.33,2.35-13.52,4.39-17.47,1.57-3.04,6.79-2.93,8.04.13-.29,4.09-6.08,14.47-4.64,17.92,1.05,2.54,4.32,2.9,6.55,1.81,5.02-2.47,4.76-10.71,6.35-15.2,1.3-3.66,10.03-2.18,9.69,3.44-.2,3.28-3.35,9.99-5.12,13.04-3.46,5.97-8.48,5.78-9.94,6Z"/><path fill="#fff" d="M46.49,143.94c1.98-.85,2.79-2.59,4.87-3.58,5.95-2.84,14.51-2.73,17.97,3.58,2.15,3.92,5.24,21.59,5.36,26.41.1,4.2-8.83,5.22-10.01,3.56-2.25-5.98-.22-27.3-10.46-26.13-10.13,1.15-5.03,17.19-4.56,23.14.31,4.02.6,5.92-3.7,7.12-2.67.74-6.94,2.02-7.92-1.26-1.63-5.44-1.35-11.71-2.14-17.23-1.1-7.67-4.87-22.54-3.64-29.51.91-5.14,8.59-8.24,10.94-4.84s.92,14.42,3.29,18.74Z"/><path fill="#fff" d="M221.61,156.55c2.49-2.36,3.89-5.65,6.61-7.85,3.83-3.1,8.84-4.85,13.39-2.12,5.75,3.44,15.25,20.96,16.92,27.42,1.14,4.4-5.95,9.43-9,7.56-5.19-3.17-8.03-27.83-18.44-22.47-7.63,3.93-.76,16.38,1.61,21.55,1.76,3.85,5.32,6.18.53,10.37-11.92,10.46-17.86-8.72-22.08-16.97-4.16-8.12-11.3-14.04-1.27-21.37,5.74-4.2,8.43-1.03,11.72,3.88Z"/><path fill="#fff" d="M212.63,185.26c-1.08,8.83-9.93,7.11-15.6,3.76-4.6-2.72-7.75-7.24-10.57-11.73-7.83,9.5-.27,31.02-14.05,36.36-11.11,4.3-10.96-12.25-8.68-19.16,1.92-5.83,13.17-22.76,12.89-25.93-.77-8.75-10.51-2.33-14.17.97-2.97,2.68-9.48,11.92-11.98,13.08-4.71,2.2-6.04-4.92-4.01-9.04,4.23-8.61,21.1-22.52,31.2-20.6,13.65,2.59,14.14,23.9,26.07,28.05,2.8.98,9.49-.44,8.92,4.25Z"/><path fill="#fff" d="M89.6,155.49c.36,1.8-4.36,4.1-6.06,3.71-2.19-.5-4.59-7.16-5.87-9.42-.66-1.16-1.6-2.02-2.29-3.27-7.4-13.49-13.9-27.58-20.82-41.32,2.31-3.79,6.65-5.07,9.27-.77,4.36-1.57,7.26-5.77,11.09-7.97,10.51-6.03,19.1,1.02,22.83,11.03,2.96,7.95-4.17,16.42-10.93,19.99-2.84,1.5-6.96,2.02-9.39,4.22l12.17,23.81ZM68.67,114.54c.62,2.31,3.72,7.28,5.01,9.79,1.14,2.22,9.89-4.07,11.2-5.72,4.28-5.35-2.53-14.29-8.57-12.62-2.81.78-8.48,5.42-7.65,8.55Z"/><path fill="#fff" d="M209.35,103.58l16.78,11.81c.89,1.05-3.99,8.45-6.89,7.86l-16.31-11.12c-3.19,6.5-8.47,12.49-11.71,18.86-2.02,3.96-2.65,8.11,1.76,10.85,4.02,2.49,12.21-6.04,14.66-9.11l7.14,4.73c1.92,2.28-4.06,7.56-5.76,9.07-5.74,5.1-12.04,7.3-19.38,4.24-20.37-8.47-9.18-26.58-.63-39.04,2.94-4.28,10.48-15.26,13.98-18.17.85-.71,2.13-1.49,3.25-1.09.95.35,5.51,3.74,6.05,4.52,1.28,1.85-1.91,5.13-2.95,6.58Z"/><path fill="#fff" d="M147.45,162.1c-8.81,5.36-13.6-3.93-14.62-11.49-.82-6.13,1.02-12.25,3.09-18.04-14.26-.3-28.42,22.02-43.17,13.31-11.89-7.02,3.28-18.76,11.2-21.66,6.68-2.44,30.16-4.36,32.84-6.89,7.41-6.98-5.42-11.23-11.05-12.2-4.57-.78-17.65-.07-20.5-1.51-5.38-2.71.14-9.02,5.34-10.14,10.87-2.33,35.63,3.04,41.13,13.6,7.43,14.28-11.59,30.02-6.81,43.85,1.12,3.25,7.21,8.32,2.54,11.16Z"/><path fill="#fff" d="M166.77,82.61c3.28,3.5,3.12,10.57,3.89,14.5.19.99-.49,1.12,1.25,1.09,2-4.7,5.74-9.14,9.95-12.06,1.48-1.03,13.68-4.89,14.85-2.67,1.78,9.92-9.03,9.4-14.34,14.43-3.63,3.44-7.26,9.76-8.86,14.49-1.8,5.32.59,26.58-5.42,28.71-2.63.93-10.59,1.45-11.29-2.1,0,0-2.61-69.81,9.96-56.39Z"/></svg>
